<svg width="24" height="24" viewBox="0 0 24 24" fill="none" xmlns="http://www.w3.org/2000/svg">
<path d="M5 3C5 2.20435 5.31607 1.44129 5.87868 0.87868C6.44129 0.316071 7.20435 0 8 0L17 0C17.7956 0 18.5587 0.316071 19.1213 0.87868C19.6839 1.44129 20 2.20435 20 3V21C20 21.7956 19.6839 22.5587 19.1213 23.1213C18.5587 23.6839 17.7956 24 17 24H8C7.20435 24 6.44129 23.6839 5.87868 23.1213C5.31607 22.5587 5 21.7956 5 21V3ZM14 19.5C14 19.1022 13.842 18.7206 13.5607 18.4393C13.2794 18.158 12.8978 18 12.5 18C12.1022 18 11.7206 18.158 11.4393 18.4393C11.158 18.7206 11 19.1022 11 19.5C11 19.8978 11.158 20.2794 11.4393 20.5607C11.7206 20.842 12.1022 21 12.5 21C12.8978 21 13.2794 20.842 13.5607 20.5607C13.842 20.2794 14 19.8978 14 19.5Z" fill="white"/>
</svg>
