<svg width="48" height="48" viewBox="0 0 48 48" fill="none" xmlns="http://www.w3.org/2000/svg">
<g filter="url(#filter0_d_6_73)">
<circle cx="24" cy="20" r="20" fill="white"/>
</g>
<g clip-path="url(#clip0_6_73)">
<path d="M21.5834 19.051C22.8421 18.4453 23.4992 17.5289 23.4992 16.1025C23.4992 13.2896 21.4171 12.6042 19.0144 12.6042H12.4V26.7249H19.2004C21.7496 26.7249 24.1444 25.4937 24.1444 22.625C24.1444 20.8519 23.3092 19.541 21.5834 19.051ZM15.4836 15.0148H18.3771C19.4894 15.0148 20.4909 15.3296 20.4909 16.6285C20.4909 17.8278 19.7111 18.3099 18.6106 18.3099H15.4836V15.0148ZM18.7809 24.3263H15.4836V20.4375H18.8442C20.2019 20.4375 21.0609 21.0073 21.0609 22.4536C21.0609 23.88 20.0356 24.3263 18.7809 24.3263ZM32.9715 14.7359H27.2834V13.3453H32.9715V14.7359ZM35.2 21.7603C35.2 18.7362 33.4425 16.2141 30.2561 16.2141C27.1606 16.2141 25.0588 18.5569 25.0588 21.6249C25.0588 24.8084 27.0498 26.9918 30.2561 26.9918C32.6825 26.9918 34.254 25.8921 35.01 23.5533H32.5479C32.2827 24.4259 31.1902 24.8881 30.3431 24.8881C28.7084 24.8881 27.8494 23.9239 27.8494 22.2863H35.1763C35.1882 22.1189 35.2 21.9396 35.2 21.7603ZM27.8534 20.5172C27.9444 19.1745 28.8311 18.3338 30.169 18.3338C31.5702 18.3338 32.2748 19.1625 32.3936 20.5172H27.8534Z" fill="#0057FF"/>
</g>
<defs>
<filter id="filter0_d_6_73" x="0" y="0" width="48" height="48" filterUnits="userSpaceOnUse" color-interpolation-filters="sRGB">
<feFlood flood-opacity="0" result="BackgroundImageFix"/>
<feColorMatrix in="SourceAlpha" type="matrix" values="0 0 0 0 0 0 0 0 0 0 0 0 0 0 0 0 0 0 127 0" result="hardAlpha"/>
<feOffset dy="4"/>
<feGaussianBlur stdDeviation="2"/>
<feComposite in2="hardAlpha" operator="out"/>
<feColorMatrix type="matrix" values="0 0 0 0 0 0 0 0 0 0 0 0 0 0 0 0 0 0 0.25 0"/>
<feBlend mode="normal" in2="BackgroundImageFix" result="effect1_dropShadow_6_73"/>
<feBlend mode="normal" in="SourceGraphic" in2="effect1_dropShadow_6_73" result="shape"/>
</filter>
<clipPath id="clip0_6_73">
<rect width="22.8" height="20.4" fill="white" transform="translate(12.4 9.59998)"/>
</clipPath>
</defs>
</svg>
