<svg width="48" height="48" viewBox="0 0 48 48" fill="none" xmlns="http://www.w3.org/2000/svg">
<g filter="url(#filter0_d_6_86)">
<circle cx="24" cy="20" r="20" fill="white"/>
</g>
<g clip-path="url(#clip0_6_86)">
<path d="M13.7142 19.9142C13.7142 24.2688 16.4436 27.9867 20.2847 29.4495C20.1912 28.6531 20.0918 27.3398 20.306 26.4184C20.4904 25.6262 21.4968 21.3711 21.4968 21.3711C21.4968 21.3711 21.1934 20.7634 21.1934 19.8632C21.1934 18.4522 22.0111 17.3982 23.0302 17.3982C23.8972 17.3982 24.3154 18.0485 24.3154 18.8279C24.3154 19.6992 23.7604 21.0014 23.4739 22.2092C23.2351 23.2199 23.9814 24.0444 24.9776 24.0444C26.7821 24.0444 28.1702 22.1412 28.1702 19.394C28.1702 16.9622 26.4226 15.263 23.9278 15.263C21.0395 15.263 19.3438 17.4297 19.3438 19.6694C19.3438 20.5424 19.6795 21.4774 20.0994 21.9865C20.1352 22.025 20.1605 22.072 20.1729 22.1231C20.1852 22.1741 20.1842 22.2275 20.17 22.2781C20.0926 22.5994 19.9209 23.2887 19.8878 23.4298C19.8427 23.6151 19.7407 23.6551 19.5478 23.565C18.2796 22.9751 17.4874 21.1212 17.4874 19.632C17.4874 16.4284 19.8138 13.4874 24.1956 13.4874C27.718 13.4874 30.4558 15.9974 30.4558 19.3515C30.4558 22.851 28.2501 25.6679 25.1867 25.6679C24.1573 25.6679 23.1909 25.1324 22.8594 24.5008C22.8594 24.5008 22.3502 26.4405 22.227 26.9148C21.9873 27.8362 21.3226 29.0024 20.9103 29.6646C21.8606 29.957 22.8687 30.1142 23.9142 30.1142C29.5472 30.1142 34.1142 25.5472 34.1142 19.9142C34.1142 14.2813 29.5472 9.71423 23.9142 9.71423C18.2813 9.71423 13.7142 14.2813 13.7142 19.9142Z" fill="#DF0022"/>
</g>
<defs>
<filter id="filter0_d_6_86" x="0" y="0" width="48" height="48" filterUnits="userSpaceOnUse" color-interpolation-filters="sRGB">
<feFlood flood-opacity="0" result="BackgroundImageFix"/>
<feColorMatrix in="SourceAlpha" type="matrix" values="0 0 0 0 0 0 0 0 0 0 0 0 0 0 0 0 0 0 127 0" result="hardAlpha"/>
<feOffset dy="4"/>
<feGaussianBlur stdDeviation="2"/>
<feComposite in2="hardAlpha" operator="out"/>
<feColorMatrix type="matrix" values="0 0 0 0 0 0 0 0 0 0 0 0 0 0 0 0 0 0 0.25 0"/>
<feBlend mode="normal" in2="BackgroundImageFix" result="effect1_dropShadow_6_86"/>
<feBlend mode="normal" in="SourceGraphic" in2="effect1_dropShadow_6_86" result="shape"/>
</filter>
<clipPath id="clip0_6_86">
<rect width="20.4" height="20.4" fill="white" transform="translate(13.7142 9.71423)"/>
</clipPath>
</defs>
</svg>
