<svg width="48" height="48" viewBox="0 0 48 48" fill="none" xmlns="http://www.w3.org/2000/svg">
<g filter="url(#filter0_d_6_68)">
<circle cx="24" cy="20" r="20" fill="white"/>
</g>
<g clip-path="url(#clip0_6_68)">
<path d="M36.7413 12.2136C35.7886 12.6357 34.778 12.9127 33.7432 13.0355C34.8211 12.3895 35.6487 11.3665 36.0384 10.1476C35.0138 10.7557 33.8927 11.1841 32.7237 11.4143C31.7715 10.3999 30.415 9.76587 28.9135 9.76587C26.0307 9.76587 23.6934 12.1031 23.6934 14.9857C23.6934 15.3949 23.7396 15.7932 23.8286 16.1754C19.4903 15.9576 15.644 13.8795 13.0694 10.7214C12.6202 11.4923 12.3628 12.3891 12.3628 13.3456C12.3628 15.1566 13.2844 16.7543 14.6849 17.6904C13.856 17.6644 13.0453 17.4406 12.3205 17.0374C12.3202 17.0593 12.3202 17.0812 12.3202 17.1031C12.3202 19.6322 14.1195 21.742 16.5074 22.2216C15.7387 22.4306 14.9324 22.4612 14.1501 22.311C14.8143 24.3848 16.7422 25.8939 19.0263 25.9362C17.2398 27.3361 14.989 28.1707 12.5434 28.1707C12.122 28.1707 11.7066 28.1459 11.2982 28.0977C13.6083 29.5788 16.3521 30.443 19.2999 30.443C28.9014 30.443 34.1517 22.4889 34.1517 15.5911C34.1517 15.3646 34.1467 15.1395 34.1366 14.9157C35.1585 14.177 36.0406 13.2619 36.7413 12.2136Z" fill="#1299FF"/>
</g>
<defs>
<filter id="filter0_d_6_68" x="0" y="0" width="48" height="48" filterUnits="userSpaceOnUse" color-interpolation-filters="sRGB">
<feFlood flood-opacity="0" result="BackgroundImageFix"/>
<feColorMatrix in="SourceAlpha" type="matrix" values="0 0 0 0 0 0 0 0 0 0 0 0 0 0 0 0 0 0 127 0" result="hardAlpha"/>
<feOffset dy="4"/>
<feGaussianBlur stdDeviation="2"/>
<feComposite in2="hardAlpha" operator="out"/>
<feColorMatrix type="matrix" values="0 0 0 0 0 0 0 0 0 0 0 0 0 0 0 0 0 0 0.25 0"/>
<feBlend mode="normal" in2="BackgroundImageFix" result="effect1_dropShadow_6_68"/>
<feBlend mode="normal" in="SourceGraphic" in2="effect1_dropShadow_6_68" result="shape"/>
</filter>
<clipPath id="clip0_6_68">
<rect width="25.4431" height="20.7719" fill="white" transform="translate(11.2982 9.6842)"/>
</clipPath>
</defs>
</svg>
