<svg width="68" height="68" viewBox="0 0 68 68" fill="none" xmlns="http://www.w3.org/2000/svg">
<circle cx="34" cy="34" r="32.5" stroke="url(#paint0_linear_6_16)" stroke-width="3"/>
<path d="M31.35 20.6C29.7095 20.6 28.1788 21.0579 26.8737 21.8556C26.7388 21.1341 26.4929 20.4378 26.1448 19.7916C27.7816 18.8858 29.6265 18.4228 31.497 18.4484C33.3675 18.474 35.199 18.9872 36.8104 19.9374C38.4218 20.8876 39.7573 22.2419 40.685 23.8664C41.6127 25.4909 42.1005 27.3293 42.1 29.2H47.4771C48.3321 29.2006 49.1518 29.5406 49.7562 30.1453C50.3605 30.7501 50.7 31.57 50.7 32.425V45.325C50.7 46.1803 50.3602 47.0006 49.7554 47.6054C49.1506 48.2102 48.3303 48.55 47.475 48.55H34.575C33.7197 48.55 32.8994 48.2102 32.2946 47.6054C31.6898 47.0006 31.35 46.1803 31.35 45.325V39.95C29.8544 39.9519 28.375 39.6406 27.007 39.0362C27.0349 38.3052 27.05 37.5377 27.05 36.725V36.6497C28.3142 37.3807 29.7826 37.8 31.35 37.8V32.425C31.35 31.5697 31.6898 30.7494 32.2946 30.1446C32.8994 29.5398 33.7197 29.2 34.575 29.2H39.95C39.95 26.9191 39.0439 24.7317 37.4311 23.1189C35.8183 21.5061 33.6309 20.6 31.35 20.6ZM41.885 31.35C41.4621 33.4152 40.442 35.3108 38.9514 36.8014C37.4608 38.292 35.5652 39.3121 33.5 39.735V45.325C33.5 45.6101 33.6133 45.8835 33.8149 46.0851C34.0165 46.2867 34.2899 46.4 34.575 46.4H47.475C47.7601 46.4 48.0335 46.2867 48.2351 46.0851C48.4367 45.8835 48.55 45.6101 48.55 45.325V32.425C48.55 32.1399 48.4367 31.8665 48.2351 31.6649C48.0335 31.4633 47.7601 31.35 47.475 31.35H41.885ZM39.6791 31.35H34.575C34.2899 31.35 34.0165 31.4633 33.8149 31.6649C33.6133 31.8665 33.5 32.1399 33.5 32.425V37.5291C34.9874 37.1437 36.3447 36.3676 37.4311 35.2811C38.5176 34.1947 39.2938 32.8374 39.6791 31.35ZM21.8491 16.5687C22.0276 16.7248 22.1495 16.9355 22.1957 17.1681C22.242 17.4006 22.2101 17.6419 22.105 17.8544C22.0868 17.9173 22.0774 17.9825 22.077 18.0479C22.077 18.1834 22.1114 18.4414 22.4361 18.7639C22.593 18.9208 22.7134 19.0326 22.8446 19.1552C22.9521 19.2541 23.0661 19.3573 23.2101 19.4992C23.4896 19.7658 23.7841 20.0797 24.0486 20.4731C24.5968 21.2966 24.9 22.3264 24.9 23.825C24.9 25.6589 24.2206 27.222 23.1606 28.1809L23.2982 28.34C23.9002 29.0796 24.2507 30.0385 24.47 30.9845C24.9 32.855 24.9 35.1039 24.9 36.6712V36.725C24.9 42.717 24.0851 46.1162 23.1886 48.0598C22.7371 49.038 22.2576 49.6615 21.8427 50.0528C21.674 50.2147 21.488 50.3575 21.288 50.4785C21.1964 50.5337 21.1008 50.5818 21.002 50.6226C21.002 50.6226 20.7591 50.7 20.6 50.7C20.4409 50.7 20.1979 50.6226 20.1979 50.6226C20.0981 50.5842 20.0023 50.536 19.912 50.4785C19.712 50.3575 19.526 50.2147 19.3573 50.0528C18.9423 49.6594 18.4629 49.038 18.0114 48.0598C17.1148 46.1162 16.3 42.717 16.3 36.725V36.6712C16.3 35.1017 16.3 32.855 16.73 30.9845C16.9493 30.0385 17.2997 29.0796 17.9017 28.34C17.9447 28.2862 17.992 28.2325 18.0393 28.1809C16.9794 27.222 16.3 25.6589 16.3 23.825C16.3 23.1241 16.487 22.2877 16.745 21.5159C17.003 20.7419 17.3642 19.9421 17.7813 19.2971C18.278 18.4586 18.9767 17.7555 19.5185 17.2825C19.8156 17.0213 20.1256 16.7752 20.4473 16.5451L20.5118 16.5021L20.5312 16.487L20.5376 16.4827L20.5419 16.4806C20.7391 16.3492 20.9741 16.2866 21.2105 16.3025C21.4469 16.3185 21.6714 16.412 21.8491 16.5687ZM20.6 27.05C21.432 27.0478 22.75 26.1255 22.75 23.825C22.75 22.636 22.5156 22.0534 22.2576 21.6664C22.1008 21.4404 21.9198 21.232 21.718 21.045L21.4514 20.7956C21.2772 20.6322 21.073 20.443 20.9139 20.2861C20.6788 20.0534 20.4769 19.7893 20.314 19.5013C20.0404 19.7891 19.7995 20.1064 19.5959 20.4473C19.2949 20.9096 19.0025 21.5438 18.7854 22.1974C18.5618 22.8639 18.45 23.453 18.45 23.825C18.45 26.1298 19.7722 27.05 20.6 27.05H20.6043H20.6ZM19.568 29.6988C19.2627 30.0707 19.009 30.6641 18.8241 31.4682C18.4543 33.0764 18.45 35.0974 18.45 36.725C18.45 42.5579 19.2476 45.6088 19.9636 47.1589C20.2001 47.6685 20.4215 48.0082 20.6 48.2339C20.854 47.9021 21.0677 47.5413 21.2364 47.1589C21.9523 45.6088 22.75 42.5579 22.75 36.725C22.75 35.0974 22.7457 33.0764 22.3737 31.4682C22.1888 30.6641 21.9351 30.0707 21.632 29.6988C21.5134 29.5381 21.3575 29.4087 21.1777 29.3218C20.9979 29.2349 20.7996 29.1931 20.6 29.2H20.5957C20.3968 29.1936 20.1993 29.2357 20.0203 29.3226C19.8413 29.4095 19.686 29.5386 19.568 29.6988Z" fill="white"/>
<defs>
<linearGradient id="paint0_linear_6_16" x1="0" y1="34.4416" x2="68" y2="34.4416" gradientUnits="userSpaceOnUse">
<stop/>
<stop offset="1" stop-color="#3D3D3D"/>
</linearGradient>
</defs>
</svg>
